<svg width="39" height="28" viewBox="0 0 39 28" fill="none" xmlns="http://www.w3.org/2000/svg">
<path d="M13.8311 22.2211C9.50594 17.988 5.05111 13.6253 0.517822 9.1875C3.44109 6.64286 6.33707 4.11868 9.23305 1.59791C9.30127 1.65931 9.37291 1.7173 9.44113 1.7787C8.55766 2.87706 7.67079 3.97542 6.65089 5.24092C8.19268 6.34268 9.68331 7.41375 10.8976 8.28357C13.5651 5.698 16.1131 3.2284 18.7226 0.697398C18.2553 0.629177 17.7948 0.560956 17.3309 0.492735C17.3343 0.421103 17.3377 0.352882 17.3411 0.28125C18.8659 0.28125 20.3906 0.28125 21.9119 0.28125C21.9256 0.325594 21.9392 0.366526 21.9563 0.41087C21.4855 0.516612 21.0114 0.625766 20.5407 0.731508C23.1126 3.21816 25.63 5.65365 28.3452 8.27675C29.4879 7.46833 30.9921 6.40749 32.6226 5.25797C31.6368 4.04023 30.7295 2.9214 29.8187 1.80258C29.8801 1.73436 29.9415 1.66272 30.0063 1.5945C32.916 4.11868 35.8256 6.64286 38.7693 9.19773C34.2258 13.6457 29.771 18.0085 25.3571 22.3303C28.7681 18.1756 32.2372 13.9459 35.9654 9.40581C33.2775 9.40581 30.8796 9.34441 28.4952 9.47062C28.1132 9.49108 27.6766 10.3029 27.4276 10.8248C25.1013 15.6719 22.8124 20.5326 20.5134 25.39C20.2507 25.946 19.971 26.4917 19.6197 27.2012C17.0273 21.7402 14.4554 16.453 12.0267 11.1011C11.4161 9.75373 10.71 9.22843 9.23646 9.341C7.39109 9.48085 5.52524 9.37511 3.28759 9.37511C7.00223 13.905 10.4917 18.1551 13.8311 22.2211Z" fill="#914493"/>
</svg>
