<svg width="22" height="22" viewBox="0 0 22 22" fill="none" xmlns="http://www.w3.org/2000/svg">
<path d="M7.08386 20.5466C7.5994 20.5466 8.01733 20.1287 8.01733 19.6132C8.01733 19.0976 7.5994 18.6797 7.08386 18.6797C6.56832 18.6797 6.15039 19.0976 6.15039 19.6132C6.15039 20.1287 6.56832 20.5466 7.08386 20.5466Z" fill="#881F8B" stroke="#881F8B" stroke-width="2" stroke-linecap="round" stroke-linejoin="round"/>
<path d="M17.3522 20.5466C17.8677 20.5466 18.2856 20.1287 18.2856 19.6132C18.2856 19.0976 17.8677 18.6797 17.3522 18.6797C16.8366 18.6797 16.4187 19.0976 16.4187 19.6132C16.4187 20.1287 16.8366 20.5466 17.3522 20.5466Z" fill="#881F8B" stroke="#881F8B" stroke-width="2" stroke-linecap="round" stroke-linejoin="round"/>
<path d="M1.52881 1.92188H3.39575L5.87877 13.5156C5.96986 13.9401 6.20611 14.3197 6.54686 14.5889C6.88762 14.8581 7.31156 15.0001 7.74571 14.9904H16.875C17.2999 14.9897 17.7119 14.8441 18.0428 14.5777C18.3738 14.3112 18.6039 13.9398 18.6953 13.5249L20.2355 6.58922H4.39456" fill="#881F8B"/>
<path d="M1.52881 1.92188H3.39575L5.87877 13.5156C5.96986 13.9401 6.20611 14.3197 6.54686 14.5889C6.88762 14.8581 7.31156 15.0001 7.74571 14.9904H16.875C17.2999 14.9897 17.7119 14.8441 18.0428 14.5777C18.3738 14.3112 18.6039 13.9398 18.6953 13.5249L20.2355 6.58922H4.39456" stroke="#881F8B" stroke-width="2" stroke-linecap="round" stroke-linejoin="round"/>
<path d="M7.82463 12.3263L6.44775 6.57031H20.2987L17.9531 13.0937H8.79719C8.33452 13.0937 7.93227 12.7763 7.82463 12.3263Z" fill="#881F8B" stroke="#881F8B"/>
</svg>
