<svg width="16" height="18" viewBox="0 0 16 18" fill="none" xmlns="http://www.w3.org/2000/svg">
<path d="M8.3159 8.23579C10.0411 8.23579 11.4397 6.65448 11.4397 4.70383C11.4397 2.75319 10.0411 1.17188 8.3159 1.17188C6.59066 1.17188 5.19208 2.75319 5.19208 4.70383C5.19208 6.65448 6.59066 8.23579 8.3159 8.23579Z" fill="#881F8B" stroke="#881F8B" stroke-width="2" stroke-linecap="round" stroke-linejoin="round"/>
<path fill-rule="evenodd" clip-rule="evenodd" d="M5.9593 10.2012L8.39747 15.8504L10.696 10.2204C11.9841 10.4857 13.2699 10.9989 14.0127 11.9069C15.0292 13.1494 15.0025 14.081 14.9603 15.5585L14.9587 15.6142C14.9429 16.1663 14.4933 16.6146 13.941 16.6146L1.70694 15.6144C1.70356 15.5346 1.70007 15.4565 1.69664 15.3798C1.63521 14.0042 1.59476 13.0986 2.56963 11.9069C3.33084 10.9764 4.64937 10.4606 5.9593 10.2012Z" fill="#881F8B"/>
<path d="M8.39747 15.8504L7.47933 16.2466C7.63891 16.6164 8.0047 16.8543 8.40739 16.8503C8.81008 16.8463 9.17108 16.6012 9.32329 16.2283L8.39747 15.8504ZM5.9593 10.2012L6.87743 9.80491C6.69071 9.37226 6.22728 9.12868 5.76504 9.22022L5.9593 10.2012ZM10.696 10.2204L10.8977 9.24096C10.4261 9.14381 9.95216 9.3966 9.77015 9.84242L10.696 10.2204ZM14.0127 11.9069L13.2387 12.5401V12.5401L14.0127 11.9069ZM14.9603 15.5585L13.9607 15.5299L13.9607 15.53L14.9603 15.5585ZM14.9587 15.6142L13.9591 15.5857L13.9591 15.5857L14.9587 15.6142ZM13.941 16.6146L13.8596 17.6113C13.8867 17.6135 13.9138 17.6146 13.941 17.6146V16.6146ZM1.70694 15.6144L0.707839 15.6568C0.729223 16.1608 1.12267 16.57 1.62546 16.6111L1.70694 15.6144ZM1.69664 15.3798L2.69565 15.3352L1.69664 15.3798ZM2.56963 11.9069L3.34363 12.5401L2.56963 11.9069ZM13.941 17.6146C14.4933 17.6146 14.941 17.1669 14.941 16.6146C14.941 16.0623 14.4933 15.6146 13.941 15.6146V17.6146ZM2.70604 15.572C2.68263 15.0202 2.21634 14.5919 1.66455 14.6153C1.11276 14.6387 0.684429 15.105 0.707839 15.6568L2.70604 15.572ZM9.31561 15.4541L6.87743 9.80491L5.04116 10.5974L7.47933 16.2466L9.31561 15.4541ZM9.77015 9.84242L7.47165 15.4724L9.32329 16.2283L11.6218 10.5984L9.77015 9.84242ZM14.7867 11.2737C13.8228 10.0954 12.2558 9.52068 10.8977 9.24096L10.4942 11.1998C11.7124 11.4507 12.7169 11.9023 13.2387 12.5401L14.7867 11.2737ZM15.9599 15.5871C15.9802 14.8767 16.0058 14.1535 15.8639 13.4476C15.713 12.6965 15.386 12.0062 14.7867 11.2737L13.2387 12.5401C13.6559 13.0501 13.8238 13.4468 13.9031 13.8416C13.9915 14.2814 13.9826 14.7628 13.9607 15.5299L15.9599 15.5871ZM15.9583 15.6428L15.9599 15.5871L13.9607 15.53L13.9591 15.5857L15.9583 15.6428ZM13.941 17.6146C15.0491 17.6146 15.9275 16.721 15.9583 15.6427L13.9591 15.5857C13.9589 15.5912 13.9579 15.5951 13.9563 15.5985C13.9546 15.6025 13.9518 15.6065 13.9485 15.6098C13.9451 15.6131 13.9426 15.6144 13.9421 15.6146C13.9419 15.6147 13.942 15.6146 13.9422 15.6146C13.9425 15.6145 13.9423 15.6146 13.941 15.6146V17.6146ZM1.62546 16.6111L13.8596 17.6113L14.0225 15.6179L1.78842 14.6177L1.62546 16.6111ZM0.697637 15.4244C0.70107 15.5013 0.704511 15.5783 0.707839 15.6568L2.70604 15.572C2.7026 15.491 2.69906 15.4117 2.69565 15.3352L0.697637 15.4244ZM1.79563 11.2737C1.21439 11.9842 0.900647 12.659 0.762121 13.3876C0.632124 14.0713 0.668172 14.7647 0.697637 15.4244L2.69565 15.3352C2.66368 14.6193 2.64878 14.1721 2.72692 13.7612C2.79653 13.3951 2.95 13.0213 3.34363 12.5401L1.79563 11.2737ZM5.76504 9.22022C4.38444 9.49362 2.78058 10.0697 1.79563 11.2737L3.34363 12.5401C3.8811 11.8831 4.9143 11.4275 6.15356 11.1821L5.76504 9.22022ZM2.73142 17.6146H13.941V15.6146H2.73142V17.6146ZM0.707839 15.6568C0.752956 16.7202 1.61992 17.6146 2.73142 17.6146V15.6146C2.72997 15.6146 2.7303 15.6145 2.73029 15.6145C2.72955 15.6142 2.72632 15.6126 2.72197 15.6084C2.71252 15.5991 2.70665 15.5863 2.70604 15.572L0.707839 15.6568Z" fill="#881F8B"/>
</svg>
