<svg width="16" height="17" viewBox="0 0 16 17" fill="none" xmlns="http://www.w3.org/2000/svg">
<path fill-rule="evenodd" clip-rule="evenodd" d="M1.66577 14.6566V8.47656H14.0258V14.6566C14.0258 15.0663 13.863 15.4593 13.5733 15.749C13.2835 16.0388 12.8905 16.2016 12.4808 16.2016H10.9359V13.1144C10.9359 12.4997 10.6917 11.9103 10.2571 11.4757C9.82246 11.041 9.233 10.7969 8.61836 10.7969H7.07336C6.45872 10.7969 5.86926 11.041 5.43464 11.4757C5.00002 11.9103 4.75586 12.4997 4.75586 13.1144V16.2016H3.21077C2.80101 16.2016 2.40804 16.0388 2.11829 15.749C1.82855 15.4593 1.66577 15.0663 1.66577 14.6566ZM6.30086 16.2016H9.39086V13.1144C9.39086 12.9095 9.30947 12.713 9.1646 12.5681C9.01973 12.4233 8.82324 12.3419 8.61836 12.3419H7.07336C6.86848 12.3419 6.67199 12.4233 6.52712 12.5681C6.38225 12.713 6.30086 12.9095 6.30086 13.1144V16.2016Z" fill="#881F8B"/>
<path fill-rule="evenodd" clip-rule="evenodd" d="M1.12372 3.60938H14.5675L12.1639 1.20578C12.0201 1.06119 11.8492 0.946477 11.6609 0.868253C11.4727 0.790029 11.2708 0.74984 11.0669 0.75H4.62427C4.4204 0.74984 4.21851 0.790029 4.03024 0.868253C3.84197 0.946477 3.67105 1.06119 3.52732 1.20578L1.12372 3.60938Z" fill="#881F8B"/>
<path d="M15.5706 4.60938V6.92687C15.5706 7.33663 15.4078 7.72961 15.1181 8.01935C14.8283 8.3091 14.4354 8.47187 14.0256 8.47187C13.5743 8.44703 13.1432 8.27624 12.7973 7.9852C12.7052 7.91859 12.5943 7.88274 12.4806 7.88274C12.3669 7.88274 12.2561 7.91859 12.1639 7.9852C11.818 8.27624 11.3869 8.44703 10.9356 8.47187C10.4843 8.44703 10.0532 8.27624 9.70733 7.9852C9.61516 7.91859 9.50433 7.88274 9.3906 7.88274C9.27688 7.88274 9.16605 7.91859 9.07388 7.9852C8.72801 8.27624 8.29695 8.44703 7.84561 8.47187C7.39426 8.44703 6.9632 8.27624 6.61733 7.9852C6.52516 7.91859 6.41433 7.88274 6.30061 7.88274C6.18688 7.88274 6.07605 7.91859 5.98388 7.9852C5.63801 8.27624 5.20695 8.44703 4.75561 8.47187C4.30426 8.44703 3.8732 8.27624 3.52733 7.9852C3.43516 7.91859 3.32433 7.88274 3.21061 7.88274C3.09688 7.88274 2.98605 7.91859 2.89388 7.9852C2.54801 8.27624 2.11695 8.44703 1.66561 8.47187C1.25585 8.47187 0.862869 8.3091 0.573125 8.01935C0.283382 7.72961 0.120605 7.33663 0.120605 6.92687V4.60938" fill="#881F8B"/>
</svg>
